<mxfile host="app.diagrams.net" agent="Mozilla/5.0 (Windows NT 10.0; Win64; x64) AppleWebKit/537.36 (KHTML, like Gecko) Chrome/131.0.0.0 Safari/537.36" version="25.0.1">
  <diagram name="第 1 页" id="IAng4DyZ7fZ4rQwhx2vA">
    <mxGraphModel dx="2901" dy="1140" grid="1" gridSize="10" guides="1" tooltips="1" connect="1" arrows="1" fold="1" page="1" pageScale="1" pageWidth="827" pageHeight="1169" math="0" shadow="0">
      <root>
        <mxCell id="0" />
        <mxCell id="1" parent="0" />
        <mxCell id="QAH1nGkxl-0bKaVpeF9E-1" value="&lt;font style=&quot;font-size: 16px;&quot;&gt;用户表&lt;/font&gt;" style="shape=partialRectangle;whiteSpace=wrap;html=1;left=0;right=0;fillColor=#f5f5f5;fontColor=#333333;strokeColor=#666666;" parent="1" vertex="1">
          <mxGeometry x="360" y="240" width="120" height="60" as="geometry" />
        </mxCell>
        <mxCell id="TUZliPgBhPXAS_lkrCLe-4" value="" style="edgeStyle=orthogonalEdgeStyle;rounded=0;orthogonalLoop=1;jettySize=auto;html=1;" parent="1" source="QAH1nGkxl-0bKaVpeF9E-2" target="TUZliPgBhPXAS_lkrCLe-1" edge="1">
          <mxGeometry relative="1" as="geometry" />
        </mxCell>
        <mxCell id="QAH1nGkxl-0bKaVpeF9E-2" value="&lt;font style=&quot;font-size: 16px;&quot;&gt;普通用户&lt;/font&gt;" style="rounded=0;whiteSpace=wrap;html=1;fillColor=#fff2cc;strokeColor=#d6b656;" parent="1" vertex="1">
          <mxGeometry x="20" y="380" width="120" height="60" as="geometry" />
        </mxCell>
        <mxCell id="jfCWbeSAMKDIsAxaK-lB-12" value="" style="edgeStyle=orthogonalEdgeStyle;rounded=0;orthogonalLoop=1;jettySize=auto;html=1;" parent="1" source="QAH1nGkxl-0bKaVpeF9E-3" target="jfCWbeSAMKDIsAxaK-lB-11" edge="1">
          <mxGeometry relative="1" as="geometry" />
        </mxCell>
        <mxCell id="qIp3pnY0JiSNYOgO8NQ2-2" value="" style="edgeStyle=orthogonalEdgeStyle;rounded=0;orthogonalLoop=1;jettySize=auto;html=1;" parent="1" source="QAH1nGkxl-0bKaVpeF9E-3" target="qIp3pnY0JiSNYOgO8NQ2-1" edge="1">
          <mxGeometry relative="1" as="geometry" />
        </mxCell>
        <mxCell id="QAH1nGkxl-0bKaVpeF9E-3" value="&lt;font style=&quot;font-size: 16px;&quot;&gt;管理员&lt;/font&gt;" style="rounded=0;whiteSpace=wrap;html=1;fillColor=#ffe6cc;strokeColor=#d79b00;" parent="1" vertex="1">
          <mxGeometry x="20" y="490" width="120" height="60" as="geometry" />
        </mxCell>
        <mxCell id="jfCWbeSAMKDIsAxaK-lB-1" value="" style="edgeStyle=orthogonalEdgeStyle;rounded=0;orthogonalLoop=1;jettySize=auto;html=1;" parent="1" source="QAH1nGkxl-0bKaVpeF9E-4" target="QAH1nGkxl-0bKaVpeF9E-8" edge="1">
          <mxGeometry relative="1" as="geometry" />
        </mxCell>
        <mxCell id="QAH1nGkxl-0bKaVpeF9E-4" value="&lt;font style=&quot;font-size: 16px;&quot;&gt;登录&lt;/font&gt;" style="ellipse;whiteSpace=wrap;html=1;aspect=fixed;fillColor=#d5e8d4;strokeColor=#82b366;" parent="1" vertex="1">
          <mxGeometry x="240" y="420" width="80" height="80" as="geometry" />
        </mxCell>
        <mxCell id="QAH1nGkxl-0bKaVpeF9E-5" value="" style="endArrow=classic;html=1;rounded=0;exitX=1;exitY=0.5;exitDx=0;exitDy=0;entryX=0;entryY=0;entryDx=0;entryDy=0;" parent="1" source="QAH1nGkxl-0bKaVpeF9E-2" target="QAH1nGkxl-0bKaVpeF9E-4" edge="1">
          <mxGeometry width="50" height="50" relative="1" as="geometry">
            <mxPoint x="390" y="600" as="sourcePoint" />
            <mxPoint x="440" y="550" as="targetPoint" />
          </mxGeometry>
        </mxCell>
        <mxCell id="QAH1nGkxl-0bKaVpeF9E-6" value="" style="endArrow=classic;html=1;rounded=0;exitX=1;exitY=0.5;exitDx=0;exitDy=0;entryX=0;entryY=1;entryDx=0;entryDy=0;" parent="1" source="QAH1nGkxl-0bKaVpeF9E-3" target="QAH1nGkxl-0bKaVpeF9E-4" edge="1">
          <mxGeometry width="50" height="50" relative="1" as="geometry">
            <mxPoint x="390" y="600" as="sourcePoint" />
            <mxPoint x="440" y="550" as="targetPoint" />
          </mxGeometry>
        </mxCell>
        <mxCell id="jfCWbeSAMKDIsAxaK-lB-3" value="" style="edgeStyle=orthogonalEdgeStyle;rounded=0;orthogonalLoop=1;jettySize=auto;html=1;" parent="1" source="QAH1nGkxl-0bKaVpeF9E-8" target="jfCWbeSAMKDIsAxaK-lB-2" edge="1">
          <mxGeometry relative="1" as="geometry" />
        </mxCell>
        <mxCell id="jfCWbeSAMKDIsAxaK-lB-10" value="" style="edgeStyle=orthogonalEdgeStyle;rounded=0;orthogonalLoop=1;jettySize=auto;html=1;" parent="1" source="QAH1nGkxl-0bKaVpeF9E-8" target="jfCWbeSAMKDIsAxaK-lB-9" edge="1">
          <mxGeometry relative="1" as="geometry" />
        </mxCell>
        <mxCell id="QAH1nGkxl-0bKaVpeF9E-8" value="&lt;font style=&quot;font-size: 16px;&quot;&gt;验证密码&lt;/font&gt;&lt;div&gt;&lt;font style=&quot;font-size: 16px;&quot;&gt;验证状态&lt;/font&gt;&lt;/div&gt;" style="ellipse;whiteSpace=wrap;html=1;aspect=fixed;fillColor=#d5e8d4;strokeColor=#82b366;" parent="1" vertex="1">
          <mxGeometry x="380" y="420" width="80" height="80" as="geometry" />
        </mxCell>
        <mxCell id="jfCWbeSAMKDIsAxaK-lB-2" value="&lt;font style=&quot;font-size: 16px;&quot;&gt;失败&lt;/font&gt;" style="ellipse;whiteSpace=wrap;html=1;aspect=fixed;fillColor=#d5e8d4;strokeColor=#82b366;" parent="1" vertex="1">
          <mxGeometry x="380" y="545" width="80" height="80" as="geometry" />
        </mxCell>
        <mxCell id="jfCWbeSAMKDIsAxaK-lB-5" value="" style="edgeStyle=orthogonalEdgeStyle;rounded=0;orthogonalLoop=1;jettySize=auto;html=1;" parent="1" source="jfCWbeSAMKDIsAxaK-lB-4" target="QAH1nGkxl-0bKaVpeF9E-1" edge="1">
          <mxGeometry relative="1" as="geometry" />
        </mxCell>
        <mxCell id="jfCWbeSAMKDIsAxaK-lB-4" value="&lt;font style=&quot;font-size: 16px;&quot;&gt;注册&lt;/font&gt;" style="ellipse;whiteSpace=wrap;html=1;aspect=fixed;fillColor=#d5e8d4;strokeColor=#82b366;" parent="1" vertex="1">
          <mxGeometry x="240" y="230" width="80" height="80" as="geometry" />
        </mxCell>
        <mxCell id="jfCWbeSAMKDIsAxaK-lB-6" value="" style="endArrow=classic;html=1;rounded=0;exitX=1;exitY=0.5;exitDx=0;exitDy=0;" parent="1" source="QAH1nGkxl-0bKaVpeF9E-2" target="jfCWbeSAMKDIsAxaK-lB-4" edge="1">
          <mxGeometry width="50" height="50" relative="1" as="geometry">
            <mxPoint x="390" y="610" as="sourcePoint" />
            <mxPoint x="440" y="560" as="targetPoint" />
          </mxGeometry>
        </mxCell>
        <mxCell id="jfCWbeSAMKDIsAxaK-lB-7" value="" style="endArrow=classic;html=1;rounded=0;exitX=1;exitY=0.5;exitDx=0;exitDy=0;entryX=0.5;entryY=1;entryDx=0;entryDy=0;" parent="1" source="QAH1nGkxl-0bKaVpeF9E-3" target="jfCWbeSAMKDIsAxaK-lB-4" edge="1">
          <mxGeometry width="50" height="50" relative="1" as="geometry">
            <mxPoint x="390" y="610" as="sourcePoint" />
            <mxPoint x="440" y="560" as="targetPoint" />
          </mxGeometry>
        </mxCell>
        <mxCell id="jfCWbeSAMKDIsAxaK-lB-8" value="" style="endArrow=classic;html=1;rounded=0;exitX=0.5;exitY=1;exitDx=0;exitDy=0;" parent="1" source="QAH1nGkxl-0bKaVpeF9E-1" target="QAH1nGkxl-0bKaVpeF9E-8" edge="1">
          <mxGeometry width="50" height="50" relative="1" as="geometry">
            <mxPoint x="390" y="610" as="sourcePoint" />
            <mxPoint x="440" y="560" as="targetPoint" />
          </mxGeometry>
        </mxCell>
        <mxCell id="jfCWbeSAMKDIsAxaK-lB-9" value="&lt;font style=&quot;font-size: 16px;&quot;&gt;成功&lt;/font&gt;" style="ellipse;whiteSpace=wrap;html=1;aspect=fixed;fillColor=#d5e8d4;strokeColor=#82b366;" parent="1" vertex="1">
          <mxGeometry x="510" y="420" width="80" height="80" as="geometry" />
        </mxCell>
        <mxCell id="jfCWbeSAMKDIsAxaK-lB-11" value="&lt;font style=&quot;font-size: 16px;&quot;&gt;封禁/解封&lt;/font&gt;&lt;div&gt;&lt;font style=&quot;font-size: 16px;&quot;&gt;用户&lt;/font&gt;&lt;/div&gt;" style="ellipse;whiteSpace=wrap;html=1;aspect=fixed;fillColor=#d5e8d4;strokeColor=#82b366;" parent="1" vertex="1">
          <mxGeometry x="-150" y="480" width="80" height="80" as="geometry" />
        </mxCell>
        <mxCell id="TUZliPgBhPXAS_lkrCLe-5" value="" style="edgeStyle=orthogonalEdgeStyle;rounded=0;orthogonalLoop=1;jettySize=auto;html=1;" parent="1" source="jfCWbeSAMKDIsAxaK-lB-13" target="TUZliPgBhPXAS_lkrCLe-2" edge="1">
          <mxGeometry relative="1" as="geometry" />
        </mxCell>
        <mxCell id="jfCWbeSAMKDIsAxaK-lB-13" value="&lt;font style=&quot;font-size: 16px;&quot;&gt;用户表&lt;/font&gt;" style="shape=partialRectangle;whiteSpace=wrap;html=1;left=0;right=0;fillColor=#f5f5f5;fontColor=#333333;strokeColor=#666666;" parent="1" vertex="1">
          <mxGeometry x="-170" y="240" width="120" height="60" as="geometry" />
        </mxCell>
        <mxCell id="jfCWbeSAMKDIsAxaK-lB-14" value="" style="endArrow=classic;html=1;rounded=0;exitX=0.5;exitY=0;exitDx=0;exitDy=0;entryX=0.5;entryY=1;entryDx=0;entryDy=0;" parent="1" source="jfCWbeSAMKDIsAxaK-lB-11" target="jfCWbeSAMKDIsAxaK-lB-13" edge="1">
          <mxGeometry width="50" height="50" relative="1" as="geometry">
            <mxPoint x="100" y="600" as="sourcePoint" />
            <mxPoint x="150" y="550" as="targetPoint" />
          </mxGeometry>
        </mxCell>
        <mxCell id="TUZliPgBhPXAS_lkrCLe-1" value="&lt;font style=&quot;font-size: 16px;&quot;&gt;修改信息&lt;/font&gt;" style="ellipse;whiteSpace=wrap;html=1;aspect=fixed;fillColor=#d5e8d4;strokeColor=#82b366;" parent="1" vertex="1">
          <mxGeometry x="-100" y="370" width="80" height="80" as="geometry" />
        </mxCell>
        <mxCell id="TUZliPgBhPXAS_lkrCLe-6" value="" style="edgeStyle=orthogonalEdgeStyle;rounded=0;orthogonalLoop=1;jettySize=auto;html=1;" parent="1" source="TUZliPgBhPXAS_lkrCLe-2" target="QAH1nGkxl-0bKaVpeF9E-2" edge="1">
          <mxGeometry relative="1" as="geometry">
            <Array as="points">
              <mxPoint x="50" y="370" />
              <mxPoint x="50" y="370" />
            </Array>
          </mxGeometry>
        </mxCell>
        <mxCell id="TUZliPgBhPXAS_lkrCLe-2" value="&lt;font style=&quot;font-size: 16px;&quot;&gt;获取用户信息&lt;/font&gt;" style="ellipse;whiteSpace=wrap;html=1;aspect=fixed;fillColor=#d5e8d4;strokeColor=#82b366;" parent="1" vertex="1">
          <mxGeometry x="10" y="230" width="80" height="80" as="geometry" />
        </mxCell>
        <mxCell id="TUZliPgBhPXAS_lkrCLe-3" value="" style="endArrow=classic;html=1;rounded=0;exitX=0.5;exitY=0;exitDx=0;exitDy=0;" parent="1" source="TUZliPgBhPXAS_lkrCLe-1" edge="1">
          <mxGeometry width="50" height="50" relative="1" as="geometry">
            <mxPoint x="30" y="200" as="sourcePoint" />
            <mxPoint x="-60" y="300" as="targetPoint" />
          </mxGeometry>
        </mxCell>
        <mxCell id="qIp3pnY0JiSNYOgO8NQ2-6" value="" style="edgeStyle=orthogonalEdgeStyle;rounded=0;orthogonalLoop=1;jettySize=auto;html=1;" parent="1" source="qIp3pnY0JiSNYOgO8NQ2-1" target="qIp3pnY0JiSNYOgO8NQ2-3" edge="1">
          <mxGeometry relative="1" as="geometry" />
        </mxCell>
        <mxCell id="HmZLHHCn-JrLylASk1sH-9" value="" style="edgeStyle=orthogonalEdgeStyle;rounded=0;orthogonalLoop=1;jettySize=auto;html=1;" edge="1" parent="1" source="qIp3pnY0JiSNYOgO8NQ2-1" target="qIp3pnY0JiSNYOgO8NQ2-4">
          <mxGeometry relative="1" as="geometry" />
        </mxCell>
        <mxCell id="qIp3pnY0JiSNYOgO8NQ2-1" value="&lt;font style=&quot;font-size: 16px;&quot;&gt;发布公告&lt;/font&gt;" style="ellipse;whiteSpace=wrap;html=1;aspect=fixed;fillColor=#d5e8d4;strokeColor=#82b366;" parent="1" vertex="1">
          <mxGeometry x="40" y="585" width="80" height="80" as="geometry" />
        </mxCell>
        <mxCell id="qIp3pnY0JiSNYOgO8NQ2-3" value="&lt;font style=&quot;font-size: 16px;&quot;&gt;通知表&lt;/font&gt;" style="shape=partialRectangle;whiteSpace=wrap;html=1;left=0;right=0;fillColor=#f5f5f5;fontColor=#333333;strokeColor=#666666;" parent="1" vertex="1">
          <mxGeometry x="-170" y="595" width="120" height="60" as="geometry" />
        </mxCell>
        <mxCell id="qIp3pnY0JiSNYOgO8NQ2-4" value="&lt;font style=&quot;font-size: 16px;&quot;&gt;公告表&lt;/font&gt;" style="shape=partialRectangle;whiteSpace=wrap;html=1;left=0;right=0;fillColor=#f5f5f5;fontColor=#333333;strokeColor=#666666;" parent="1" vertex="1">
          <mxGeometry x="190" y="595" width="120" height="60" as="geometry" />
        </mxCell>
        <mxCell id="HmZLHHCn-JrLylASk1sH-4" value="" style="edgeStyle=orthogonalEdgeStyle;rounded=0;orthogonalLoop=1;jettySize=auto;html=1;" edge="1" parent="1" source="HmZLHHCn-JrLylASk1sH-2" target="HmZLHHCn-JrLylASk1sH-3">
          <mxGeometry relative="1" as="geometry" />
        </mxCell>
        <mxCell id="HmZLHHCn-JrLylASk1sH-2" value="&lt;font style=&quot;font-size: 16px;&quot;&gt;通知表&lt;/font&gt;" style="shape=partialRectangle;whiteSpace=wrap;html=1;left=0;right=0;fillColor=#f5f5f5;fontColor=#333333;strokeColor=#666666;" vertex="1" parent="1">
          <mxGeometry x="80" y="130" width="120" height="60" as="geometry" />
        </mxCell>
        <mxCell id="HmZLHHCn-JrLylASk1sH-3" value="&lt;font style=&quot;font-size: 16px;&quot;&gt;获取通知&lt;/font&gt;" style="ellipse;whiteSpace=wrap;html=1;aspect=fixed;fillColor=#d5e8d4;strokeColor=#82b366;" vertex="1" parent="1">
          <mxGeometry x="100" y="230" width="80" height="80" as="geometry" />
        </mxCell>
        <mxCell id="HmZLHHCn-JrLylASk1sH-5" value="" style="endArrow=classic;html=1;rounded=0;exitX=0.5;exitY=1;exitDx=0;exitDy=0;entryX=0.75;entryY=0;entryDx=0;entryDy=0;" edge="1" parent="1" source="HmZLHHCn-JrLylASk1sH-3" target="QAH1nGkxl-0bKaVpeF9E-2">
          <mxGeometry width="50" height="50" relative="1" as="geometry">
            <mxPoint x="-20" y="390" as="sourcePoint" />
            <mxPoint x="30" y="340" as="targetPoint" />
          </mxGeometry>
        </mxCell>
        <mxCell id="HmZLHHCn-JrLylASk1sH-6" value="&lt;span style=&quot;font-size: 16px;&quot;&gt;充值菜币&lt;/span&gt;" style="ellipse;whiteSpace=wrap;html=1;aspect=fixed;fillColor=#d5e8d4;strokeColor=#82b366;" vertex="1" parent="1">
          <mxGeometry x="280" y="330" width="80" height="80" as="geometry" />
        </mxCell>
        <mxCell id="HmZLHHCn-JrLylASk1sH-7" value="" style="endArrow=classic;html=1;rounded=0;entryX=0;entryY=0.5;entryDx=0;entryDy=0;exitX=1;exitY=0.5;exitDx=0;exitDy=0;" edge="1" parent="1" source="QAH1nGkxl-0bKaVpeF9E-2" target="HmZLHHCn-JrLylASk1sH-6">
          <mxGeometry width="50" height="50" relative="1" as="geometry">
            <mxPoint x="-20" y="390" as="sourcePoint" />
            <mxPoint x="30" y="340" as="targetPoint" />
          </mxGeometry>
        </mxCell>
        <mxCell id="HmZLHHCn-JrLylASk1sH-8" value="" style="endArrow=classic;html=1;rounded=0;entryX=0.25;entryY=1;entryDx=0;entryDy=0;exitX=1;exitY=0;exitDx=0;exitDy=0;" edge="1" parent="1" source="HmZLHHCn-JrLylASk1sH-6" target="QAH1nGkxl-0bKaVpeF9E-1">
          <mxGeometry width="50" height="50" relative="1" as="geometry">
            <mxPoint x="-20" y="390" as="sourcePoint" />
            <mxPoint x="30" y="340" as="targetPoint" />
          </mxGeometry>
        </mxCell>
      </root>
    </mxGraphModel>
  </diagram>
</mxfile>
